<?xml version='1.0' encoding='utf-8'?>
<svg xmlns:xlink="http://www.w3.org/1999/xlink" xmlns="http://www.w3.org/2000/svg" version="1.1" id="Layer_1" x="0px" y="0px" viewBox="0 0 5000 5000" enable-background="new 0 0 5000 5000"> <symbol id="New_Symbol" viewBox="-10 -210.9428 20 421.8857"> <circle cx="0" cy="200.9428" r="10"/> <circle cx="0" cy="169.3142" r="9.2857"/> <ellipse transform="matrix(0.7071 -0.7071 0.7071 0.7071 -97.3585 40.3272)" cx="0" cy="137.6857" rx="8.5714" ry="8.5714"/> <ellipse transform="matrix(0.7071 -0.7071 0.7071 0.7071 -97.3585 40.3272)" cx="0" cy="137.6857" rx="8.5714" ry="8.5714"/> <ellipse transform="matrix(0.2298 -0.9732 0.9732 0.2298 -103.22 81.6902)" cx="0" cy="106.0571" rx="7.8572" ry="7.8571"/> <ellipse transform="matrix(0.2298 -0.9732 0.9732 0.2298 -103.22 81.6902)" cx="0" cy="106.0571" rx="7.8572" ry="7.8571"/> <path d="M-7.1429,74.4285c0,3.9449,3.1979,7.1429,7.1429,7.1429c3.9449,0,7.1428-3.198,7.1428-7.1429 c0-3.9448-3.1979-7.1428-7.1428-7.1428C-3.9449,67.2857-7.1429,70.4837-7.1429,74.4285z"/> <path d="M-7.1429,74.4285c0,3.9449,3.1979,7.1429,7.1429,7.1429c3.9449,0,7.1428-3.198,7.1428-7.1429 c0-3.9448-3.1979-7.1428-7.1428-7.1428C-3.9449,67.2857-7.1429,70.4837-7.1429,74.4285z"/> <circle cx="0" cy="42.8" r="6.4286"/> <circle cx="0" cy="42.8" r="6.4286"/> <path d="M-5.7143,11.1714c0,3.1559,2.5583,5.7142,5.7143,5.7142c3.1559,0,5.7142-2.5583,5.7142-5.7142S3.1559,5.4571,0,5.4571 C-3.1559,5.4571-5.7143,8.0155-5.7143,11.1714z"/> <path d="M-5.7143,11.1714c0,3.1559,2.5583,5.7142,5.7143,5.7142c3.1559,0,5.7142-2.5583,5.7142-5.7142S3.1559,5.4571,0,5.4571 C-3.1559,5.4571-5.7143,8.0155-5.7143,11.1714z"/> <circle cx="0" cy="-20.4571" r="5"/> <circle cx="0" cy="-20.4571" r="5"/> <path d="M-4.2858-52.0858C-4.2858-49.7188-2.3669-47.8,0-47.8c2.3669,0,4.2857-1.9188,4.2857-4.2858S2.3669-56.3714,0-56.3714 C-2.3669-56.3714-4.2858-54.4527-4.2858-52.0858z"/> <path d="M-4.2858-52.0858C-4.2858-49.7188-2.3669-47.8,0-47.8c2.3669,0,4.2857-1.9188,4.2857-4.2858S2.3669-56.3714,0-56.3714 C-2.3669-56.3714-4.2858-54.4527-4.2858-52.0858z"/> <path d="M-3.5715-83.7143c0,1.9724,1.599,3.5714,3.5715,3.5714c1.9724,0,3.5714-1.599,3.5714-3.5714S1.9724-87.2857,0-87.2857 C-1.9725-87.2857-3.5715-85.6867-3.5715-83.7143z"/> <path d="M-3.5715-83.7143c0,1.9724,1.599,3.5714,3.5715,3.5714c1.9724,0,3.5714-1.599,3.5714-3.5714S1.9724-87.2857,0-87.2857 C-1.9725-87.2857-3.5715-85.6867-3.5715-83.7143z"/> <path d="M-2.8572-115.3429c0,1.5779,1.2792,2.8571,2.8572,2.8571c1.5779,0,2.8571-1.2792,2.8571-2.8571 c0-1.578-1.2792-2.8572-2.8571-2.8572C-1.578-118.2-2.8572-116.9209-2.8572-115.3429z"/> <path d="M-2.8572-115.3429c0,1.5779,1.2792,2.8571,2.8572,2.8571c1.5779,0,2.8571-1.2792,2.8571-2.8571 c0-1.578-1.2792-2.8572-2.8571-2.8572C-1.578-118.2-2.8572-116.9209-2.8572-115.3429z"/> <path d="M-2.1429-146.9715c0,1.1835,0.9594,2.1429,2.1429,2.1429c1.1834,0,2.1428-0.9595,2.1428-2.1429 c0-1.1833-0.9594-2.1428-2.1428-2.1428C-1.1835-149.1143-2.1429-148.1549-2.1429-146.9715z"/> <path d="M-2.1429-146.9715c0,1.1835,0.9594,2.1429,2.1429,2.1429c1.1834,0,2.1428-0.9595,2.1428-2.1429 c0-1.1833-0.9594-2.1428-2.1428-2.1428C-1.1835-149.1143-2.1429-148.1549-2.1429-146.9715z"/> <path d="M-1.4286-178.6001c0,0.7891,0.6396,1.4286,1.4286,1.4286c0.7889,0,1.4285-0.6395,1.4285-1.4286 c0-0.7889-0.6396-1.4286-1.4285-1.4286C-0.789-180.0287-1.4286-179.389-1.4286-178.6001z"/> <path d="M-1.4286-178.6001c0,0.7891,0.6396,1.4286,1.4286,1.4286c0.7889,0,1.4285-0.6395,1.4285-1.4286 c0-0.7889-0.6396-1.4286-1.4285-1.4286C-0.789-180.0287-1.4286-179.389-1.4286-178.6001z"/> <path d="M-0.7143-210.2286c0,0.3945,0.3198,0.7142,0.7143,0.7142c0.3945,0,0.7142-0.3197,0.7142-0.7142S0.3945-210.9428,0-210.9428 C-0.3945-210.9428-0.7143-210.6231-0.7143-210.2286z"/> <path d="M-0.7143-210.2286c0,0.3945,0.3198,0.7142,0.7143,0.7142c0.3945,0,0.7142-0.3197,0.7142-0.7142S0.3945-210.9428,0-210.9428 C-0.3945-210.9428-0.7143-210.6231-0.7143-210.2286z"/> </symbol> <g> </g> <g> <use xlink:href="#New_Symbol" width="20" height="421.8857" x="-10" y="-210.9428" transform="matrix(-2.4729 0 0 2.4729 2500 521.6488)" overflow="visible"/> <use xlink:href="#New_Symbol" width="20" height="421.8857" x="-10" y="-210.9428" transform="matrix(-2.4705 0.1091 0.1091 2.4705 2411.2017 523.6061)" overflow="visible"/> <use xlink:href="#New_Symbol" width="20" height="421.8857" x="-10" y="-210.9428" transform="matrix(-2.4632 0.2189 0.2189 2.4632 2322.5732 529.4969)" overflow="visible"/> <use xlink:href="#New_Symbol" width="20" height="421.8857" x="-10" y="-210.9428" transform="matrix(-2.451 0.329 0.329 2.451 2234.3049 539.337)" overflow="visible"/> <use xlink:href="#New_Symbol" width="20" height="421.8857" x="-10" y="-210.9428" transform="matrix(-2.4337 0.4389 0.4389 2.4337 2146.583 553.1257)" overflow="visible"/> <use xlink:href="#New_Symbol" width="20" height="421.8857" x="-10" y="-210.9428" transform="matrix(-2.4114 0.5482 0.5482 2.4114 2059.5671 570.8531)" overflow="visible"/> <use xlink:href="#New_Symbol" width="20" height="421.8857" x="-10" y="-210.9428" transform="matrix(-2.3842 0.6567 0.6567 2.3842 1973.4344 592.494)" overflow="visible"/> <use xlink:href="#New_Symbol" width="20" height="421.8857" x="-10" y="-210.9428" transform="matrix(-2.352 0.7639 0.7639 2.352 1888.3687 618.0079)" overflow="visible"/> <use xlink:href="#New_Symbol" width="20" height="421.8857" x="-10" y="-210.9428" transform="matrix(-2.3151 0.8694 0.8694 2.3151 1804.5477 647.3422)" overflow="visible"/> <use xlink:href="#New_Symbol" width="20" height="421.8857" x="-10" y="-210.9428" transform="matrix(-2.2734 0.9731 0.9731 2.2734 1722.1437 680.4333)" overflow="visible"/> <use xlink:href="#New_Symbol" width="20" height="421.8857" x="-10" y="-210.9428" transform="matrix(-2.2272 1.0747 1.0747 2.2272 1641.323 717.2083)" overflow="visible"/> <use xlink:href="#New_Symbol" width="20" height="421.8857" x="-10" y="-210.9428" transform="matrix(-2.1766 1.1739 1.1739 2.1766 1562.239 757.5895)" overflow="visible"/> <use xlink:href="#New_Symbol" width="20" height="421.8857" x="-10" y="-210.9428" transform="matrix(-2.1216 1.2705 1.2705 2.1216 1485.05 801.488)" overflow="visible"/> <use xlink:href="#New_Symbol" width="20" height="421.8857" x="-10" y="-210.9428" transform="matrix(-2.0625 1.3644 1.3644 2.0625 1409.9095 848.8073)" overflow="visible"/> <use xlink:href="#New_Symbol" width="20" height="421.8857" x="-10" y="-210.9428" transform="matrix(-1.9994 1.4553 1.4553 1.9994 1336.9656 899.4449)" overflow="visible"/> <use xlink:href="#New_Symbol" width="20" height="421.8857" x="-10" y="-210.9428" transform="matrix(-1.9323 1.5432 1.5432 1.9323 1266.3607 953.2933)" overflow="visible"/> <use xlink:href="#New_Symbol" width="20" height="421.8857" x="-10" y="-210.9428" transform="matrix(-1.8615 1.6279 1.6279 1.8615 1198.2324 1010.2405)" overflow="visible"/> <use xlink:href="#New_Symbol" width="20" height="421.8857" x="-10" y="-210.9428" transform="matrix(-1.787 1.7094 1.7094 1.787 1132.7136 1070.17)" overflow="visible"/> <use xlink:href="#New_Symbol" width="20" height="421.8857" x="-10" y="-210.9428" transform="matrix(-1.709 1.7873 1.7873 1.709 1069.9327 1132.9618)" overflow="visible"/> <use xlink:href="#New_Symbol" width="20" height="421.8857" x="-10" y="-210.9428" transform="matrix(-1.6276 1.8618 1.8618 1.6276 1010.0152 1198.49)" overflow="visible"/> <use xlink:href="#New_Symbol" width="20" height="421.8857" x="-10" y="-210.9428" transform="matrix(-1.5429 1.9326 1.9326 1.5429 953.082 1266.6252)" overflow="visible"/> <use xlink:href="#New_Symbol" width="20" height="421.8857" x="-10" y="-210.9428" transform="matrix(-1.455 1.9996 1.9996 1.455 899.2496 1337.2338)" overflow="visible"/> <use xlink:href="#New_Symbol" width="20" height="421.8857" x="-10" y="-210.9428" transform="matrix(-1.364 2.0627 2.0627 1.364 848.6296 1410.1781)" overflow="visible"/> <use xlink:href="#New_Symbol" width="20" height="421.8857" x="-10" y="-210.9428" transform="matrix(-1.2702 2.1218 2.1218 1.2702 801.3283 1485.3168)" overflow="visible"/> <use xlink:href="#New_Symbol" width="20" height="421.8857" x="-10" y="-210.9428" transform="matrix(-1.1736 2.1767 2.1767 1.1736 757.4465 1562.5042)" overflow="visible"/> <use xlink:href="#New_Symbol" width="20" height="421.8857" x="-10" y="-210.9428" transform="matrix(-1.0744 2.2274 2.2274 1.0744 717.0793 1641.5902)" overflow="visible"/> <use xlink:href="#New_Symbol" width="20" height="421.8857" x="-10" y="-210.9428" transform="matrix(-0.9728 2.2736 2.2736 0.9728 680.3196 1722.4094)" overflow="visible"/> <use xlink:href="#New_Symbol" width="20" height="421.8857" x="-10" y="-210.9428" transform="matrix(-0.8691 2.3152 2.3152 0.8691 647.2474 1804.8)" overflow="visible"/> <use xlink:href="#New_Symbol" width="20" height="421.8857" x="-10" y="-210.9428" transform="matrix(-0.7636 2.3521 2.3521 0.7636 617.9336 1888.5974)" overflow="visible"/> <use xlink:href="#New_Symbol" width="20" height="421.8857" x="-10" y="-210.9428" transform="matrix(-0.6564 2.3842 2.3842 0.6564 592.439 1973.6342)" overflow="visible"/> <use xlink:href="#New_Symbol" width="20" height="421.8857" x="-10" y="-210.9428" transform="matrix(-0.548 2.4115 2.4115 0.548 570.8131 2059.7429)" overflow="visible"/> <use xlink:href="#New_Symbol" width="20" height="421.8857" x="-10" y="-210.9428" transform="matrix(-0.4387 2.4337 2.4337 0.4387 553.0965 2146.7449)" overflow="visible"/> <use xlink:href="#New_Symbol" width="20" height="421.8857" x="-10" y="-210.9428" transform="matrix(-0.3288 2.451 2.451 0.3288 539.3187 2234.4407)" overflow="visible"/> <use xlink:href="#New_Symbol" width="20" height="421.8857" x="-10" y="-210.9428" transform="matrix(-0.2188 2.4632 2.4632 0.2188 529.4894 2322.6575)" overflow="visible"/> <use xlink:href="#New_Symbol" width="20" height="421.8857" x="-10" y="-210.9428" transform="matrix(-0.1091 2.4705 2.4705 0.1091 523.6049 2411.229)" overflow="visible"/> <use xlink:href="#New_Symbol" width="20" height="421.8857" x="-10" y="-210.9428" transform="matrix(1.188374e-06 2.4729 2.4729 -1.188374e-06 521.6488 2500.001)" overflow="visible"/> <use xlink:href="#New_Symbol" width="20" height="421.8857" x="-10" y="-210.9428" transform="matrix(0.1091 2.4705 2.4705 -0.1091 523.6061 2588.7993)" overflow="visible"/> <use xlink:href="#New_Symbol" width="20" height="421.8857" x="-10" y="-210.9428" transform="matrix(0.2189 2.4632 2.4632 -0.2189 529.497 2677.4277)" overflow="visible"/> <use xlink:href="#New_Symbol" width="20" height="421.8857" x="-10" y="-210.9428" transform="matrix(0.329 2.451 2.451 -0.329 539.3371 2765.696)" overflow="visible"/> <use xlink:href="#New_Symbol" width="20" height="421.8857" x="-10" y="-210.9428" transform="matrix(0.4389 2.4337 2.4337 -0.4389 553.1259 2853.418)" overflow="visible"/> <use xlink:href="#New_Symbol" width="20" height="421.8857" x="-10" y="-210.9428" transform="matrix(0.5482 2.4114 2.4114 -0.5482 570.8533 2940.4338)" overflow="visible"/> <use xlink:href="#New_Symbol" width="20" height="421.8857" x="-10" y="-210.9428" transform="matrix(0.6567 2.3842 2.3842 -0.6567 592.4942 3026.5664)" overflow="visible"/> <use xlink:href="#New_Symbol" width="20" height="421.8857" x="-10" y="-210.9428" transform="matrix(0.7639 2.352 2.352 -0.7639 618.0082 3111.6323)" overflow="visible"/> <use xlink:href="#New_Symbol" width="20" height="421.8857" x="-10" y="-210.9428" transform="matrix(0.8694 2.3151 2.3151 -0.8694 647.3425 3195.4531)" overflow="visible"/> <use xlink:href="#New_Symbol" width="20" height="421.8857" x="-10" y="-210.9428" transform="matrix(0.9731 2.2734 2.2734 -0.9731 680.4337 3277.8572)" overflow="visible"/> <use xlink:href="#New_Symbol" width="20" height="421.8857" x="-10" y="-210.9428" transform="matrix(1.0747 2.2272 2.2272 -1.0747 717.2087 3358.678)" overflow="visible"/> <use xlink:href="#New_Symbol" width="20" height="421.8857" x="-10" y="-210.9428" transform="matrix(1.1739 2.1766 2.1766 -1.1739 757.59 3437.7617)" overflow="visible"/> <use xlink:href="#New_Symbol" width="20" height="421.8857" x="-10" y="-210.9428" transform="matrix(1.2705 2.1216 2.1216 -1.2705 801.4885 3514.9509)" overflow="visible"/> <use xlink:href="#New_Symbol" width="20" height="421.8857" x="-10" y="-210.9428" transform="matrix(1.3644 2.0625 2.0625 -1.3644 848.8078 3590.0913)" overflow="visible"/> <use xlink:href="#New_Symbol" width="20" height="421.8857" x="-10" y="-210.9428" transform="matrix(1.4553 1.9994 1.9994 -1.4553 899.4454 3663.0352)" overflow="visible"/> <use xlink:href="#New_Symbol" width="20" height="421.8857" x="-10" y="-210.9428" transform="matrix(1.5432 1.9323 1.9323 -1.5432 953.2939 3733.6401)" overflow="visible"/> <use xlink:href="#New_Symbol" width="20" height="421.8857" x="-10" y="-210.9428" transform="matrix(1.6279 1.8615 1.8615 -1.6279 1010.2411 3801.7683)" overflow="visible"/> <use xlink:href="#New_Symbol" width="20" height="421.8857" x="-10" y="-210.9428" transform="matrix(1.7094 1.787 1.787 -1.7094 1070.1708 3867.2871)" overflow="visible"/> <use xlink:href="#New_Symbol" width="20" height="421.8857" x="-10" y="-210.9428" transform="matrix(1.7873 1.709 1.709 -1.7873 1132.9624 3930.0679)" overflow="visible"/> <use xlink:href="#New_Symbol" width="20" height="421.8857" x="-10" y="-210.9428" transform="matrix(1.8618 1.6276 1.6276 -1.8618 1198.4907 3989.9854)" overflow="visible"/> <use xlink:href="#New_Symbol" width="20" height="421.8857" x="-10" y="-210.9428" transform="matrix(1.9326 1.5429 1.5429 -1.9326 1266.626 4046.9185)" overflow="visible"/> <use xlink:href="#New_Symbol" width="20" height="421.8857" x="-10" y="-210.9428" transform="matrix(1.9996 1.455 1.455 -1.9996 1337.2346 4100.751)" overflow="visible"/> <use xlink:href="#New_Symbol" width="20" height="421.8857" x="-10" y="-210.9428" transform="matrix(2.0627 1.364 1.364 -2.0627 1410.179 4151.3711)" overflow="visible"/> <use xlink:href="#New_Symbol" width="20" height="421.8857" x="-10" y="-210.9428" transform="matrix(2.1218 1.2702 1.2702 -2.1218 1485.3176 4198.6724)" overflow="visible"/> <use xlink:href="#New_Symbol" width="20" height="421.8857" x="-10" y="-210.9428" transform="matrix(2.1767 1.1736 1.1736 -2.1767 1562.505 4242.5537)" overflow="visible"/> <use xlink:href="#New_Symbol" width="20" height="421.8857" x="-10" y="-210.9428" transform="matrix(2.2274 1.0744 1.0744 -2.2274 1641.5911 4282.9209)" overflow="visible"/> <use xlink:href="#New_Symbol" width="20" height="421.8857" x="-10" y="-210.9428" transform="matrix(2.2736 0.9728 0.9728 -2.2736 1722.4103 4319.6807)" overflow="visible"/> <use xlink:href="#New_Symbol" width="20" height="421.8857" x="-10" y="-210.9428" transform="matrix(2.3152 0.8691 0.8691 -2.3152 1804.801 4352.7529)" overflow="visible"/> <use xlink:href="#New_Symbol" width="20" height="421.8857" x="-10" y="-210.9428" transform="matrix(2.3521 0.7636 0.7636 -2.3521 1888.5983 4382.0669)" overflow="visible"/> <use xlink:href="#New_Symbol" width="20" height="421.8857" x="-10" y="-210.9428" transform="matrix(2.3842 0.6564 0.6564 -2.3842 1973.6351 4407.5615)" overflow="visible"/> <use xlink:href="#New_Symbol" width="20" height="421.8857" x="-10" y="-210.9428" transform="matrix(2.4115 0.548 0.548 -2.4115 2059.7439 4429.187)" overflow="visible"/> <use xlink:href="#New_Symbol" width="20" height="421.8857" x="-10" y="-210.9428" transform="matrix(2.4337 0.4387 0.4387 -2.4337 2146.7458 4446.9038)" overflow="visible"/> <use xlink:href="#New_Symbol" width="20" height="421.8857" x="-10" y="-210.9428" transform="matrix(2.451 0.3288 0.3288 -2.451 2234.4417 4460.6816)" overflow="visible"/> <use xlink:href="#New_Symbol" width="20" height="421.8857" x="-10" y="-210.9428" transform="matrix(2.4632 0.2188 0.2188 -2.4632 2322.6584 4470.5107)" overflow="visible"/> <use xlink:href="#New_Symbol" width="20" height="421.8857" x="-10" y="-210.9428" transform="matrix(2.4705 0.1091 0.1091 -2.4705 2411.23 4476.395)" overflow="visible"/> <use xlink:href="#New_Symbol" width="20" height="421.8857" x="-10" y="-210.9428" transform="matrix(2.4729 0 0 -2.4729 2500.002 4478.3511)" overflow="visible"/> <use xlink:href="#New_Symbol" width="20" height="421.8857" x="-10" y="-210.9428" transform="matrix(2.4705 -0.1091 -0.1091 -2.4705 2588.8003 4476.394)" overflow="visible"/> <use xlink:href="#New_Symbol" width="20" height="421.8857" x="-10" y="-210.9428" transform="matrix(2.4632 -0.2189 -0.2189 -2.4632 2677.4287 4470.5029)" overflow="visible"/> <use xlink:href="#New_Symbol" width="20" height="421.8857" x="-10" y="-210.9428" transform="matrix(2.451 -0.329 -0.329 -2.451 2765.697 4460.6626)" overflow="visible"/> <use xlink:href="#New_Symbol" width="20" height="421.8857" x="-10" y="-210.9428" transform="matrix(2.4337 -0.4389 -0.4389 -2.4337 2853.4189 4446.874)" overflow="visible"/> <use xlink:href="#New_Symbol" width="20" height="421.8857" x="-10" y="-210.9428" transform="matrix(2.4114 -0.5482 -0.5482 -2.4114 2940.4348 4429.1465)" overflow="visible"/> <use xlink:href="#New_Symbol" width="20" height="421.8857" x="-10" y="-210.9428" transform="matrix(2.3842 -0.6567 -0.6567 -2.3842 3026.5674 4407.5054)" overflow="visible"/> <use xlink:href="#New_Symbol" width="20" height="421.8857" x="-10" y="-210.9428" transform="matrix(2.352 -0.7639 -0.7639 -2.352 3111.6333 4381.9917)" overflow="visible"/> <use xlink:href="#New_Symbol" width="20" height="421.8857" x="-10" y="-210.9428" transform="matrix(2.3151 -0.8694 -0.8694 -2.3151 3195.4541 4352.6572)" overflow="visible"/> <use xlink:href="#New_Symbol" width="20" height="421.8857" x="-10" y="-210.9428" transform="matrix(2.2734 -0.9731 -0.9731 -2.2734 3277.8582 4319.5659)" overflow="visible"/> <use xlink:href="#New_Symbol" width="20" height="421.8857" x="-10" y="-210.9428" transform="matrix(2.2272 -1.0747 -1.0747 -2.2272 3358.6787 4282.791)" overflow="visible"/> <use xlink:href="#New_Symbol" width="20" height="421.8857" x="-10" y="-210.9428" transform="matrix(2.1766 -1.1739 -1.1739 -2.1766 3437.7627 4242.4097)" overflow="visible"/> <use xlink:href="#New_Symbol" width="20" height="421.8857" x="-10" y="-210.9428" transform="matrix(2.1216 -1.2705 -1.2705 -2.1216 3514.9517 4198.5107)" overflow="visible"/> <use xlink:href="#New_Symbol" width="20" height="421.8857" x="-10" y="-210.9428" transform="matrix(2.0625 -1.3644 -1.3644 -2.0625 3590.092 4151.1914)" overflow="visible"/> <use xlink:href="#New_Symbol" width="20" height="421.8857" x="-10" y="-210.9428" transform="matrix(1.9994 -1.4553 -1.4553 -1.9994 3663.0361 4100.5542)" overflow="visible"/> <use xlink:href="#New_Symbol" width="20" height="421.8857" x="-10" y="-210.9428" transform="matrix(1.9323 -1.5432 -1.5432 -1.9323 3733.6409 4046.7056)" overflow="visible"/> <use xlink:href="#New_Symbol" width="20" height="421.8857" x="-10" y="-210.9428" transform="matrix(1.8615 -1.6279 -1.6279 -1.8615 3801.769 3989.7583)" overflow="visible"/> <use xlink:href="#New_Symbol" width="20" height="421.8857" x="-10" y="-210.9428" transform="matrix(1.787 -1.7094 -1.7094 -1.787 3867.2878 3929.8286)" overflow="visible"/> <use xlink:href="#New_Symbol" width="20" height="421.8857" x="-10" y="-210.9428" transform="matrix(1.709 -1.7873 -1.7873 -1.709 3930.0686 3867.0369)" overflow="visible"/> <use xlink:href="#New_Symbol" width="20" height="421.8857" x="-10" y="-210.9428" transform="matrix(1.6276 -1.8618 -1.8618 -1.6276 3989.9861 3801.5085)" overflow="visible"/> <use xlink:href="#New_Symbol" width="20" height="421.8857" x="-10" y="-210.9428" transform="matrix(1.5429 -1.9326 -1.9326 -1.5429 4046.9192 3733.3733)" overflow="visible"/> <use xlink:href="#New_Symbol" width="20" height="421.8857" x="-10" y="-210.9428" transform="matrix(1.455 -1.9996 -1.9996 -1.455 4100.7515 3662.7646)" overflow="visible"/> <use xlink:href="#New_Symbol" width="20" height="421.8857" x="-10" y="-210.9428" transform="matrix(1.364 -2.0627 -2.0627 -1.364 4151.3716 3589.8203)" overflow="visible"/> <use xlink:href="#New_Symbol" width="20" height="421.8857" x="-10" y="-210.9428" transform="matrix(1.2702 -2.1218 -2.1218 -1.2702 4198.6729 3514.6816)" overflow="visible"/> <use xlink:href="#New_Symbol" width="20" height="421.8857" x="-10" y="-210.9428" transform="matrix(1.1736 -2.1767 -2.1767 -1.1736 4242.5542 3437.4941)" overflow="visible"/> <use xlink:href="#New_Symbol" width="20" height="421.8857" x="-10" y="-210.9428" transform="matrix(1.0744 -2.2274 -2.2274 -1.0744 4282.9214 3358.408)" overflow="visible"/> <use xlink:href="#New_Symbol" width="20" height="421.8857" x="-10" y="-210.9428" transform="matrix(0.9728 -2.2736 -2.2736 -0.9728 4319.6812 3277.5889)" overflow="visible"/> <use xlink:href="#New_Symbol" width="20" height="421.8857" x="-10" y="-210.9428" transform="matrix(0.8691 -2.3152 -2.3152 -0.8691 4352.7534 3195.198)" overflow="visible"/> <use xlink:href="#New_Symbol" width="20" height="421.8857" x="-10" y="-210.9428" transform="matrix(0.7636 -2.3521 -2.3521 -0.7636 4382.0669 3111.4009)" overflow="visible"/> <use xlink:href="#New_Symbol" width="20" height="421.8857" x="-10" y="-210.9428" transform="matrix(0.6564 -2.3842 -2.3842 -0.6564 4407.5615 3026.364)" overflow="visible"/> <use xlink:href="#New_Symbol" width="20" height="421.8857" x="-10" y="-210.9428" transform="matrix(0.548 -2.4115 -2.4115 -0.548 4429.1875 2940.2551)" overflow="visible"/> <use xlink:href="#New_Symbol" width="20" height="421.8857" x="-10" y="-210.9428" transform="matrix(0.4387 -2.4337 -2.4337 -0.4387 4446.9038 2853.2532)" overflow="visible"/> <use xlink:href="#New_Symbol" width="20" height="421.8857" x="-10" y="-210.9428" transform="matrix(0.3288 -2.451 -2.451 -0.3288 4460.6816 2765.5574)" overflow="visible"/> <use xlink:href="#New_Symbol" width="20" height="421.8857" x="-10" y="-210.9428" transform="matrix(0.2188 -2.4632 -2.4632 -0.2188 4470.5107 2677.3406)" overflow="visible"/> <use xlink:href="#New_Symbol" width="20" height="421.8857" x="-10" y="-210.9428" transform="matrix(0.1091 -2.4705 -2.4705 -0.1091 4476.395 2588.769)" overflow="visible"/> <use xlink:href="#New_Symbol" width="20" height="421.8857" x="-10" y="-210.9428" transform="matrix(-3.579392e-06 -2.4729 -2.4729 3.579392e-06 4478.3511 2499.9971)" overflow="visible"/> <use xlink:href="#New_Symbol" width="20" height="421.8857" x="-10" y="-210.9428" transform="matrix(-0.1091 -2.4705 -2.4705 0.1091 4476.394 2411.1987)" overflow="visible"/> <use xlink:href="#New_Symbol" width="20" height="421.8857" x="-10" y="-210.9428" transform="matrix(-0.2189 -2.4632 -2.4632 0.2189 4470.5029 2322.5703)" overflow="visible"/> <use xlink:href="#New_Symbol" width="20" height="421.8857" x="-10" y="-210.9428" transform="matrix(-0.329 -2.451 -2.451 0.329 4460.6626 2234.302)" overflow="visible"/> <use xlink:href="#New_Symbol" width="20" height="421.8857" x="-10" y="-210.9428" transform="matrix(-0.4389 -2.4337 -2.4337 0.4389 4446.8735 2146.5801)" overflow="visible"/> <use xlink:href="#New_Symbol" width="20" height="421.8857" x="-10" y="-210.9428" transform="matrix(-0.5482 -2.4114 -2.4114 0.5482 4429.1465 2059.5642)" overflow="visible"/> <use xlink:href="#New_Symbol" width="20" height="421.8857" x="-10" y="-210.9428" transform="matrix(-0.6567 -2.3842 -2.3842 0.6567 4407.5054 1973.4316)" overflow="visible"/> <use xlink:href="#New_Symbol" width="20" height="421.8857" x="-10" y="-210.9428" transform="matrix(-0.7639 -2.352 -2.352 0.7639 4381.9912 1888.3658)" overflow="visible"/> <use xlink:href="#New_Symbol" width="20" height="421.8857" x="-10" y="-210.9428" transform="matrix(-0.8694 -2.3151 -2.3151 0.8694 4352.6567 1804.5449)" overflow="visible"/> <use xlink:href="#New_Symbol" width="20" height="421.8857" x="-10" y="-210.9428" transform="matrix(-0.9731 -2.2734 -2.2734 0.9731 4319.5654 1722.1409)" overflow="visible"/> <use xlink:href="#New_Symbol" width="20" height="421.8857" x="-10" y="-210.9428" transform="matrix(-1.0747 -2.2272 -2.2272 1.0747 4282.7905 1641.3203)" overflow="visible"/> <use xlink:href="#New_Symbol" width="20" height="421.8857" x="-10" y="-210.9428" transform="matrix(-1.1739 -2.1766 -2.1766 1.1739 4242.4092 1562.2365)" overflow="visible"/> <use xlink:href="#New_Symbol" width="20" height="421.8857" x="-10" y="-210.9428" transform="matrix(-1.2705 -2.1216 -2.1216 1.2705 4198.5103 1485.0475)" overflow="visible"/> <use xlink:href="#New_Symbol" width="20" height="421.8857" x="-10" y="-210.9428" transform="matrix(-1.3644 -2.0625 -2.0625 1.3644 4151.1909 1409.9071)" overflow="visible"/> <use xlink:href="#New_Symbol" width="20" height="421.8857" x="-10" y="-210.9428" transform="matrix(-1.4553 -1.9994 -1.9994 1.4553 4100.5532 1336.9631)" overflow="visible"/> <use xlink:href="#New_Symbol" width="20" height="421.8857" x="-10" y="-210.9428" transform="matrix(-1.5432 -1.9323 -1.9323 1.5432 4046.7048 1266.3584)" overflow="visible"/> <use xlink:href="#New_Symbol" width="20" height="421.8857" x="-10" y="-210.9428" transform="matrix(-1.6279 -1.8615 -1.8615 1.6279 3989.7576 1198.2302)" overflow="visible"/> <use xlink:href="#New_Symbol" width="20" height="421.8857" x="-10" y="-210.9428" transform="matrix(-1.7094 -1.787 -1.787 1.7094 3929.8279 1132.7115)" overflow="visible"/> <use xlink:href="#New_Symbol" width="20" height="421.8857" x="-10" y="-210.9428" transform="matrix(-1.7873 -1.709 -1.709 1.7873 3867.0361 1069.9308)" overflow="visible"/> <use xlink:href="#New_Symbol" width="20" height="421.8857" x="-10" y="-210.9428" transform="matrix(-1.8618 -1.6276 -1.6276 1.8618 3801.5078 1010.0133)" overflow="visible"/> <use xlink:href="#New_Symbol" width="20" height="421.8857" x="-10" y="-210.9428" transform="matrix(-1.9326 -1.5429 -1.5429 1.9326 3733.3726 953.0802)" overflow="visible"/> <use xlink:href="#New_Symbol" width="20" height="421.8857" x="-10" y="-210.9428" transform="matrix(-1.9996 -1.455 -1.455 1.9996 3662.7639 899.2479)" overflow="visible"/> <use xlink:href="#New_Symbol" width="20" height="421.8857" x="-10" y="-210.9428" transform="matrix(-2.0627 -1.364 -1.364 2.0627 3589.8193 848.628)" overflow="visible"/> <use xlink:href="#New_Symbol" width="20" height="421.8857" x="-10" y="-210.9428" transform="matrix(-2.1218 -1.2702 -1.2702 2.1218 3514.6807 801.3268)" overflow="visible"/> <use xlink:href="#New_Symbol" width="20" height="421.8857" x="-10" y="-210.9428" transform="matrix(-2.1767 -1.1736 -1.1736 2.1767 3437.4932 757.4451)" overflow="visible"/> <use xlink:href="#New_Symbol" width="20" height="421.8857" x="-10" y="-210.9428" transform="matrix(-2.2274 -1.0744 -1.0744 2.2274 3358.4072 717.078)" overflow="visible"/> <use xlink:href="#New_Symbol" width="20" height="421.8857" x="-10" y="-210.9428" transform="matrix(-2.2736 -0.9728 -0.9728 2.2736 3277.5879 680.3184)" overflow="visible"/> <use xlink:href="#New_Symbol" width="20" height="421.8857" x="-10" y="-210.9428" transform="matrix(-2.3152 -0.8691 -0.8691 2.3152 3195.1973 647.2463)" overflow="visible"/> <use xlink:href="#New_Symbol" width="20" height="421.8857" x="-10" y="-210.9428" transform="matrix(-2.3521 -0.7636 -0.7636 2.3521 3111.3999 617.9327)" overflow="visible"/> <use xlink:href="#New_Symbol" width="20" height="421.8857" x="-10" y="-210.9428" transform="matrix(-2.3842 -0.6564 -0.6564 2.3842 3026.363 592.4382)" overflow="visible"/> <use xlink:href="#New_Symbol" width="20" height="421.8857" x="-10" y="-210.9428" transform="matrix(-2.4115 -0.548 -0.548 2.4115 2940.2542 570.8125)" overflow="visible"/> <use xlink:href="#New_Symbol" width="20" height="421.8857" x="-10" y="-210.9428" transform="matrix(-2.4337 -0.4387 -0.4387 2.4337 2853.2522 553.096)" overflow="visible"/> <use xlink:href="#New_Symbol" width="20" height="421.8857" x="-10" y="-210.9428" transform="matrix(-2.451 -0.3288 -0.3288 2.451 2765.5564 539.3184)" overflow="visible"/> <use xlink:href="#New_Symbol" width="20" height="421.8857" x="-10" y="-210.9428" transform="matrix(-2.4632 -0.2188 -0.2188 2.4632 2677.3396 529.4892)" overflow="visible"/> <use xlink:href="#New_Symbol" width="20" height="421.8857" x="-10" y="-210.9428" transform="matrix(-2.4705 -0.1091 -0.1091 2.4705 2588.7681 523.6047)" overflow="visible"/> </g> </svg>