<?xml version="1.0" encoding="UTF-8"?>
<svg viewBox="0 0 30.253 50.243" xmlns="http://www.w3.org/2000/svg">
 <path d="m0.697 4.347c0 15.548 13.34 13.222 13.34 20.812 0 6.979-13.195 4.041-13.195 20.813h28.856c0-16.712-13.775-13.736-13.775-20.813 0-7.534 13.605-7.534 13.701-20.812h-28.927z" fill="#ddd" stroke="#000" stroke-width="1.038"/>
 <path d="m1.956 44.819c2.164 0.067001 24.894 0.067001 26.585 0.067001 0.066999-0.54-0.135-3.99-1.557-7.373-1.556 0-23.405-0.067001-23.405-0.067001-1.759 3.653-1.69 7.509-1.623 7.373z" fill="#3f3f3f"/>
 <path d="m4.797 13.973c5.412 0.339 13.868 0.541 19.212 0.067-0.136 1.895-8.998 5.345-9.065 9.605-0.068-4.26-9.606-7.17-10.147-9.672z"/>
 <g stroke="#000" stroke-width=".759">
  <rect x=".38" y=".38" width="29.493" height="4.062"/>
  <rect x=".38" y="45.801" width="29.493" height="4.062"/>
 </g>
 <g fill="#fff">
  <path d="m4.003 6.02h6.088c0 10.932 4.687 11.253 5.173 17.354-2.086-7.291-10.575-7.364-11.261-17.354z" opacity=".6"/>
  <path d="m3.722 45.108h6.088c-1.663-11.188 4.687-10.673 5.172-18.202-2.086 7.291-12.119 5.14-11.26 18.202z" opacity=".6"/>
 </g>
</svg>
